<svg viewBox="0 0 700 620" xmlns="http://www.w3.org/2000/svg" font-family="Segoe UI, Arial, sans-serif">
  <rect width="700" height="620" fill="#ffffff"/>
  <text x="350" y="38" text-anchor="middle" font-size="22" font-weight="700" fill="#0B2545">Risk Heatmap — Likelihood × Impact</text>
  <text x="350" y="60" text-anchor="middle" font-size="13" fill="#6B7280">Illustrative distribution of 26 assessed risks</text>
  <rect x="140" y="100" width="80" height="80" fill="#FDE68A"/>
  <rect x="220" y="100" width="80" height="80" fill="#FCA5A5"/>
  <rect x="300" y="100" width="80" height="80" fill="#F87171"/>
  <rect x="380" y="100" width="80" height="80" fill="#EF4444"/>
  <rect x="460" y="100" width="80" height="80" fill="#B91C1C"/>
  <rect x="140" y="180" width="80" height="80" fill="#BBF7D0"/>
  <rect x="220" y="180" width="80" height="80" fill="#FDE68A"/>
  <rect x="300" y="180" width="80" height="80" fill="#FCA5A5"/>
  <rect x="380" y="180" width="80" height="80" fill="#F87171"/>
  <rect x="460" y="180" width="80" height="80" fill="#EF4444"/>
  <rect x="140" y="260" width="80" height="80" fill="#86EFAC"/>
  <rect x="220" y="260" width="80" height="80" fill="#BBF7D0"/>
  <rect x="300" y="260" width="80" height="80" fill="#FDE68A"/>
  <rect x="380" y="260" width="80" height="80" fill="#FCA5A5"/>
  <rect x="460" y="260" width="80" height="80" fill="#F87171"/>
  <rect x="140" y="340" width="80" height="80" fill="#4ADE80"/>
  <rect x="220" y="340" width="80" height="80" fill="#86EFAC"/>
  <rect x="300" y="340" width="80" height="80" fill="#BBF7D0"/>
  <rect x="380" y="340" width="80" height="80" fill="#FDE68A"/>
  <rect x="460" y="340" width="80" height="80" fill="#FCA5A5"/>
  <rect x="140" y="420" width="80" height="80" fill="#22C55E"/>
  <rect x="220" y="420" width="80" height="80" fill="#4ADE80"/>
  <rect x="300" y="420" width="80" height="80" fill="#86EFAC"/>
  <rect x="380" y="420" width="80" height="80" fill="#BBF7D0"/>
  <rect x="460" y="420" width="80" height="80" fill="#FDE68A"/>
  <g stroke="#ffffff" stroke-width="2" fill="none">
    <rect x="140" y="100" width="400" height="400"/>
    <line x1="220" y1="100" x2="220" y2="500"/>
    <line x1="300" y1="100" x2="300" y2="500"/>
    <line x1="380" y1="100" x2="380" y2="500"/>
    <line x1="460" y1="100" x2="460" y2="500"/>
    <line x1="140" y1="180" x2="540" y2="180"/>
    <line x1="140" y1="260" x2="540" y2="260"/>
    <line x1="140" y1="340" x2="540" y2="340"/>
    <line x1="140" y1="420" x2="540" y2="420"/>
  </g>
  <g fill="#0B2545" stroke="#ffffff" stroke-width="1.5">
    <circle cx="500" cy="140" r="7"/>
    <circle cx="420" cy="140" r="7"/>
    <circle cx="460" cy="120" r="7"/>
    <circle cx="500" cy="180" r="7"/>
    <circle cx="440" cy="200" r="7"/>
    <circle cx="340" cy="180" r="6"/>
    <circle cx="380" cy="160" r="6"/>
    <circle cx="300" cy="220" r="6"/>
    <circle cx="420" cy="260" r="6"/>
    <circle cx="460" cy="260" r="6"/>
    <circle cx="360" cy="240" r="6"/>
    <circle cx="500" cy="300" r="6"/>
    <circle cx="260" cy="180" r="6"/>
    <circle cx="380" cy="300" r="6"/>
    <circle cx="440" cy="340" r="6"/>
    <circle cx="320" cy="300" r="6"/>
    <circle cx="220" cy="260" r="5"/>
    <circle cx="260" cy="340" r="5"/>
    <circle cx="180" cy="300" r="5"/>
    <circle cx="300" cy="380" r="5"/>
    <circle cx="240" cy="420" r="5"/>
    <circle cx="180" cy="380" r="5"/>
    <circle cx="160" cy="440" r="5"/>
    <circle cx="220" cy="460" r="5"/>
    <circle cx="300" cy="460" r="5"/>
    <circle cx="160" cy="200" r="5"/>
  </g>
  <text x="340" y="545" text-anchor="middle" font-size="14" font-weight="600" fill="#0B2545">Impact →</text>
  <text x="90" y="300" text-anchor="middle" font-size="14" font-weight="600" fill="#0B2545" transform="rotate(-90 90 300)">Likelihood →</text>
  <g font-size="11" fill="#6B7280" text-anchor="middle">
    <text x="180" y="515">1</text>
    <text x="260" y="515">2</text>
    <text x="340" y="515">3</text>
    <text x="420" y="515">4</text>
    <text x="500" y="515">5</text>
  </g>
  <g font-size="11" fill="#6B7280" text-anchor="end">
    <text x="130" y="464">1</text>
    <text x="130" y="384">2</text>
    <text x="130" y="304">3</text>
    <text x="130" y="224">4</text>
    <text x="130" y="144">5</text>
  </g>
  <circle cx="200" cy="565" r="6" fill="#0B2545" stroke="#ffffff" stroke-width="1.5"/>
  <text x="215" y="569" font-size="12" fill="#374151">Individual risk (illustrative placement)</text>
  <text x="350" y="600" text-anchor="middle" font-size="11" fill="#9CA3AF">Full scoring, treatment, and ownership detail available in the Risk Treatment Plan</text>
</svg>
